<mxfile host="2a15e0d1-3fa5-410f-82b8-909a92d985c7" modified="2020-07-01T23:43:03.713Z" agent="5.0 (Windows NT 10.0; Win64; x64) AppleWebKit/537.36 (KHTML, like Gecko) Code-Insiders/1.47.0-insider Chrome/78.0.3904.130 Electron/7.3.2 Safari/537.36" etag="uAVKj30yckHai_YL-gVd" version="13.1.3">
    <diagram id="6hGFLwfOUW9BJ-s0fimq" name="Page-1">
        <mxGraphModel dx="1051" dy="802" grid="1" gridSize="10" guides="1" tooltips="1" connect="1" arrows="1" fold="1" page="1" pageScale="1" pageWidth="850" pageHeight="1100" math="0" shadow="0">
            <root>
                <mxCell id="0"/>
                <mxCell id="1" parent="0"/>
            </root>
        </mxGraphModel>
    </diagram>
</mxfile>